<?xml version="1.0" encoding="UTF-8"?>
<!DOCTYPE svg PUBLIC "-//W3C//DTD SVG 1.1//EN" "http://www.w3.org/Graphics/SVG/1.1/DTD/svg11.dtd">
<svg xmlns="http://www.w3.org/2000/svg" version="1.1" width="1441px" height="1441px" style="shape-rendering:geometricPrecision; text-rendering:geometricPrecision; image-rendering:optimizeQuality; fill-rule:evenodd; clip-rule:evenodd" xmlns:xlink="http://www.w3.org/1999/xlink">
<g><path style="opacity:0.988" fill="#f1f2f1" d="M 715.5,102.5 C 722.555,101.111 728.388,103.111 733,108.5C 780.333,190.5 827.667,272.5 875,354.5C 876.626,357.058 877.626,359.725 878,362.5C 788.708,325.614 697.542,320.447 604.5,347C 590.01,351.384 575.844,356.551 562,362.5C 564.4,356.367 567.4,350.367 571,344.5C 617.04,264.918 663.207,185.418 709.5,106C 711.432,104.541 713.432,103.375 715.5,102.5 Z"/></g>
<g><path style="opacity:0.985" fill="#f1f2f1" d="M 545.5,154.5 C 546.376,154.369 547.043,154.702 547.5,155.5C 567.356,205.393 558.023,248.893 519.5,286C 480.718,315.343 439.385,319.343 395.5,298C 375.325,286.826 360.325,270.826 350.5,250C 350.833,249.5 351.167,249 351.5,248.5C 416.502,217.664 481.169,186.331 545.5,154.5 Z"/></g>
<g><path style="opacity:0.985" fill="#f1f2f1" d="M 888.5,154.5 C 954.264,185.549 1019.6,217.382 1084.5,250C 1066.29,286.126 1036.95,306.46 996.5,311C 950.096,313.386 914.929,294.886 891,255.5C 874.017,222.191 873.184,188.524 888.5,154.5 Z"/></g>
<g><path style="opacity:0.988" fill="#f1f2f1" d="M 228.5,336.5 C 327.257,350.237 425.923,364.737 524.5,380C 424.966,437.486 359.299,521.652 327.5,632.5C 291.238,540.883 255.071,449.216 219,357.5C 216.51,347.761 219.677,340.761 228.5,336.5 Z"/></g>
<g><path style="opacity:0.988" fill="#f1f2f1" d="M 1204.5,336.5 C 1218.61,337.441 1224.11,344.774 1221,358.5C 1185.38,450.025 1149.38,541.359 1113,632.5C 1081.37,522.017 1015.87,438.183 916.5,381C 1012.61,366.036 1108.61,351.203 1204.5,336.5 Z"/></g>
<g><path style="opacity:0.986" fill="#f1f2f1" d="M 155.5,501.5 C 209.165,516.676 237.498,552.176 240.5,608C 237.2,664.628 208.2,700.294 153.5,715C 137.672,718.56 122.005,718.06 106.5,713.5C 122.841,642.805 139.174,572.138 155.5,501.5 Z"/></g>
<g><path style="opacity:0.986" fill="#f1f2f1" d="M 1285.5,501.5 C 1286.5,501.5 1287.5,501.5 1288.5,501.5C 1303.87,572.3 1319.87,642.967 1336.5,713.5C 1282.56,723.448 1241.73,704.781 1214,657.5C 1195.93,617.247 1199.26,578.914 1224,542.5C 1240.14,522.176 1260.64,508.509 1285.5,501.5 Z"/></g>
<g><path style="opacity:0.988" fill="#f1f2f1" d="M 1120.5,667.5 C 1193.3,734.461 1265.96,801.628 1338.5,869C 1346.11,879.098 1344.77,887.764 1334.5,895C 1236.8,925.068 1139.13,955.234 1041.5,985.5C 1040.48,984.998 1040.31,984.332 1041,983.5C 1111.33,889.523 1137.83,784.19 1120.5,667.5 Z"/></g>
<g><path style="opacity:0.988" fill="#f1f2f1" d="M 318.5,668.5 C 319.239,668.369 319.906,668.536 320.5,669C 302.443,786.445 329.443,892.112 401.5,986C 398.793,986.328 396.126,985.995 393.5,985C 296.822,954.998 200.155,924.998 103.5,895C 95.0625,887.445 94.3959,879.278 101.5,870.5C 173.88,803.117 246.213,735.784 318.5,668.5 Z"/></g>
<g><path style="opacity:0.989" fill="#f1f2f1" d="M 410.5,998.5 C 491.049,1089.34 592.383,1137.18 714.5,1142C 629.167,1200.33 543.833,1258.67 458.5,1317C 450.241,1321.69 442.741,1320.52 436,1313.5C 435.138,1311.91 434.471,1310.25 434,1308.5C 426.213,1205.15 418.38,1101.82 410.5,998.5 Z"/></g>
<g><path style="opacity:0.989" fill="#f1f2f1" d="M 1026.5,1000.5 C 1027.75,1001.33 1028.41,1002.67 1028.5,1004.5C 1020.86,1103.82 1013.36,1203.15 1006,1302.5C 1004.01,1317.75 995.839,1322.58 981.5,1317C 895.892,1259.06 810.559,1200.72 725.5,1142C 831.149,1138.59 922.482,1101.26 999.5,1030C 1009.44,1020.9 1018.44,1011.06 1026.5,1000.5 Z"/></g>
<g><path style="opacity:0.986" fill="#f1f2f1" d="M 241.5,1010.5 C 292.14,1008.06 329.306,1029.06 353,1073.5C 370.131,1115.69 364.798,1154.69 337,1190.5C 332.281,1195.72 327.115,1200.39 321.5,1204.5C 275.817,1148.15 230.484,1091.48 185.5,1034.5C 201.927,1021.25 220.593,1013.25 241.5,1010.5 Z"/></g>
<g><path style="opacity:0.985" fill="#f1f2f1" d="M 1189.5,1010.5 C 1216.36,1008.21 1241.02,1014.38 1263.5,1029C 1265.99,1030.57 1267.99,1032.57 1269.5,1035C 1224.93,1091.97 1179.76,1148.47 1134,1204.5C 1106.88,1182.92 1093.05,1154.59 1092.5,1119.5C 1097.06,1058.28 1129.39,1021.95 1189.5,1010.5 Z"/></g>
<g><path style="opacity:0.986" fill="#f1f2f1" d="M 717.5,1228.5 C 764.908,1229.6 799.075,1251.27 820,1293.5C 826.172,1307.86 829.338,1322.86 829.5,1338.5C 756.833,1338.5 684.167,1338.5 611.5,1338.5C 613.494,1287.03 638.494,1252.19 686.5,1234C 696.789,1231.06 707.123,1229.23 717.5,1228.5 Z"/></g>
</svg>
