<svg width="536" height="506" viewBox="0 0 536 506" fill="none" xmlns="http://www.w3.org/2000/svg">
<path d="M275.83 113.938L392.294 177.289C397.282 180.003 400.387 185.227 400.387 190.905V315.893C400.387 321.571 397.282 326.795 392.294 329.509L275.83 392.86C271.212 395.372 265.635 395.372 261.017 392.86L144.553 329.509C139.565 326.795 136.46 321.571 136.46 315.893V190.905C136.46 185.227 139.565 180.003 144.553 177.289L261.017 113.938C265.635 111.426 271.212 111.426 275.83 113.938Z" stroke="url(#paint0_linear_53_23)" stroke-width="3"/>
<path d="M265.842 184.736C264.771 186.28 250.845 209.206 249.774 211.106L249.081 212.354L253.996 210.988C263.322 208.434 273.34 208.552 282.288 211.344C284.241 211.938 285.88 212.413 286.006 212.354C286.384 211.938 268.426 183.666 267.669 183.548C267.165 183.429 266.346 183.963 265.842 184.736Z" fill="white"/>
<path d="M234.528 195.014C227.912 198.043 223.564 200.36 223.69 200.776C223.753 201.191 225.013 202.557 226.399 203.745C232.638 209.15 243.034 207.131 246.563 199.825C248.264 196.321 248.075 189.966 246.248 189.966C245.87 189.966 240.577 192.223 234.528 195.014Z" fill="white"/>
<path d="M287.204 191.274C283.864 203.034 298.798 211.824 308.187 203.746C309.573 202.559 310.833 201.252 310.896 200.836C311.085 200.183 289.914 190.027 288.338 189.967C287.897 189.967 287.456 190.561 287.204 191.274Z" fill="white"/>
<path d="M207.618 211.048C207.303 211.879 218.897 241.16 220.032 242.408C220.284 242.645 220.788 241.695 221.229 240.329C223.938 231.895 231.059 223.045 239.817 217.343C241.897 215.977 243.283 214.908 242.968 214.908C242.653 214.908 234.902 213.839 225.703 212.532C216.503 211.226 208.753 210.157 208.501 210.157C208.248 210.157 207.87 210.572 207.618 211.048Z" fill="white"/>
<path d="M315.496 211.647C310.644 212.36 303.335 213.429 299.239 214.023L291.803 215.092L294.828 216.992C302.767 222.041 309.51 229.94 313.164 238.552L314.992 242.888L320.537 229.643C323.561 222.338 326.46 215.389 326.964 214.201C327.531 212.954 327.783 211.528 327.531 211.053C327.09 209.925 326.46 209.984 315.496 211.647Z" fill="white"/>
<path d="M196.846 240.271C195.397 246.448 194.199 251.794 194.199 252.15C194.199 253.219 198.736 253.1 201.635 252.031C206.55 250.071 209.322 246.032 209.322 240.746C209.322 236.529 207.621 233.322 204.155 230.946C199.744 227.917 199.807 227.858 196.846 240.271Z" fill="white"/>
<path d="M332.51 230.294C328.036 232.789 325.516 237.421 326.083 241.995C326.776 248.172 331.376 252.389 337.929 252.804C341.458 253.042 341.773 252.983 341.458 251.973C340.954 250.488 335.976 229.938 335.976 229.522C335.976 228.809 334.4 229.166 332.51 230.294Z" fill="white"/>
<path d="M316.313 254.404C316.628 263.729 313.603 273.707 308.184 281.369C307.176 282.795 306.987 283.329 307.617 283.092C308.121 282.913 314.8 281.013 322.425 278.815C343.093 272.876 342.273 273.173 342.273 271.926C342.273 271.035 328.348 258.324 318.392 250.187L316.124 248.346L316.313 254.404Z" fill="white"/>
<path d="M205.667 259.813C196.341 267.95 192.939 271.276 193.065 272.107C193.254 273.058 196.215 274.127 211.023 278.463L228.792 283.63L227.028 281.195C221.609 273.77 219.341 266.94 218.837 256.546L218.458 248.647L205.667 259.813Z" fill="white"/>
<path d="M230.745 287.606C230.745 290.754 233.328 320.214 233.643 320.689C234.4 321.877 236.479 320.808 249.522 312.492C268.426 300.435 266.976 301.92 260.864 301.029C250.909 299.663 241.646 295.565 234.463 289.329C230.934 286.24 230.745 286.122 230.745 287.606Z" fill="white"/>
<path d="M302.578 287.671C300.057 290.225 293.756 294.502 289.723 296.402C284.304 299.016 281.595 299.847 275.042 300.976L269.182 301.926L283.863 311.429C292.811 317.19 299.112 320.873 300.057 320.873L301.632 320.932L303.019 304.005C303.775 294.68 304.342 286.84 304.279 286.602C304.216 286.305 303.397 286.84 302.578 287.671Z" fill="white"/>
<path d="M206.046 287.783C204.723 288.259 203.652 288.912 203.652 289.209C203.652 289.506 206.55 293.129 210.142 297.346C213.671 301.503 217.262 305.661 218.081 306.671L219.531 308.452L221.295 306.552C223.689 304.057 224.824 299.246 223.878 295.802C221.862 288.852 213.23 284.932 206.046 287.783Z" fill="white"/>
<path d="M320.853 287.428C314.552 289.804 311.212 296.753 313.418 302.87C314.237 305.246 316.253 308.156 317.072 308.156C317.387 308.156 321.168 303.939 325.516 298.832C331.628 291.586 333.266 289.329 332.636 288.794C330.557 286.953 324.066 286.24 320.853 287.428Z" fill="white"/>
<path d="M261.935 312.792C260.548 313.445 258.784 314.573 258.028 315.346C256.39 317.009 254.688 320.632 254.688 322.413C254.688 323.542 255.066 323.601 267.606 323.601C282.35 323.601 281.657 323.898 279.011 318.434C276.868 314.217 273.529 312.138 268.299 311.901C265.526 311.723 263.762 311.96 261.935 312.792Z" fill="white"/>
<path d="M467.606 253C467.606 356.733 378.325 440.975 268 440.975C157.675 440.975 68.394 356.733 68.394 253C68.394 149.267 157.675 65.0253 268 65.0253C378.325 65.0253 467.606 149.267 467.606 253Z" stroke="url(#paint1_linear_53_23)" stroke-opacity="0.6" stroke-width="3"/>
<path d="M534.5 253C534.5 391.541 415.269 504 268 504C120.731 504 1.5 391.541 1.5 253C1.5 114.459 120.731 2 268 2C415.269 2 534.5 114.459 534.5 253Z" stroke="url(#paint2_linear_53_23)" stroke-opacity="0.4" stroke-width="3"/>
<path d="M534.5 253C534.5 391.541 415.269 504 268 504C120.731 504 1.5 391.541 1.5 253C1.5 114.459 120.731 2 268 2C415.269 2 534.5 114.459 534.5 253Z" stroke="url(#paint3_linear_53_23)" stroke-opacity="0.4" stroke-width="3"/>
<path d="M265.134 143.381C263.557 145.794 243.059 181.613 241.482 184.583L240.461 186.531L247.696 184.397C261.424 180.407 276.172 180.592 289.343 184.954C292.218 185.882 294.63 186.624 294.815 186.531C295.372 185.882 268.937 141.711 267.824 141.526C267.082 141.34 265.876 142.175 265.134 143.381Z" fill="#E5502C"/>
<path d="M219.039 159.441C209.3 164.174 202.9 167.793 203.085 168.442C203.178 169.092 205.033 171.226 207.074 173.082C216.256 181.527 231.561 178.372 236.755 166.958C239.259 161.483 238.981 151.554 236.291 151.554C235.735 151.554 227.943 155.08 219.039 159.441Z" fill="#E5502C"/>
<path d="M296.579 153.597C291.663 171.97 313.646 185.704 327.466 173.084C329.507 171.228 331.362 169.186 331.455 168.537C331.733 167.516 300.568 151.648 298.249 151.555C297.6 151.555 296.95 152.483 296.579 153.597Z" fill="#E5502C"/>
<path d="M179.428 184.491C178.964 185.79 196.031 231.538 197.7 233.487C198.071 233.858 198.813 232.373 199.463 230.239C203.451 217.062 213.932 203.236 226.825 194.327C229.886 192.193 231.926 190.523 231.463 190.523C230.999 190.523 219.59 188.852 206.048 186.811C192.506 184.769 181.097 183.099 180.726 183.099C180.355 183.099 179.799 183.748 179.428 184.491Z" fill="#E5502C"/>
<path d="M338.225 185.427C331.083 186.54 320.324 188.211 314.295 189.139L303.35 190.809L307.802 193.778C319.489 201.666 329.413 214.008 334.793 227.463L337.483 234.237L345.645 213.544C350.097 202.13 354.364 191.273 355.106 189.417C355.941 187.468 356.312 185.241 355.941 184.499C355.292 182.736 354.364 182.829 338.225 185.427Z" fill="#E5502C"/>
<path d="M163.57 230.149C161.437 239.8 159.675 248.151 159.675 248.708C159.675 250.379 166.353 250.193 170.62 248.523C177.855 245.46 181.936 239.15 181.936 230.892C181.936 224.303 179.431 219.292 174.33 215.58C167.837 210.848 167.93 210.755 163.57 230.149Z" fill="#E5502C"/>
<path d="M363.271 214.561C356.685 218.459 352.975 225.697 353.81 232.842C354.83 242.493 361.601 249.081 371.247 249.731C376.442 250.102 376.905 250.009 376.442 248.432C375.7 246.112 368.372 214.004 368.372 213.355C368.372 212.241 366.053 212.798 363.271 214.561Z" fill="#E5502C"/>
<path d="M339.428 252.23C339.891 266.799 335.439 282.389 327.462 294.36C325.978 296.587 325.7 297.422 326.628 297.051C327.37 296.772 337.202 293.803 348.425 290.369C378.848 281.09 377.642 281.554 377.642 279.605C377.642 278.213 357.144 258.355 342.489 245.642L339.149 242.765L339.428 252.23Z" fill="#E5502C"/>
<path d="M176.556 260.681C162.828 273.394 157.819 278.59 158.005 279.889C158.283 281.374 162.643 283.044 184.44 289.818L210.596 297.892L207.999 294.087C200.022 282.488 196.683 271.816 195.941 255.577L195.385 243.235L176.556 260.681Z" fill="#E5502C"/>
<path d="M213.471 304.104C213.471 309.022 217.274 355.049 217.737 355.791C218.85 357.647 221.911 355.977 241.111 342.985C268.937 324.148 266.804 326.468 257.807 325.076C243.152 322.942 229.517 316.539 218.943 306.795C213.749 301.97 213.471 301.784 213.471 304.104Z" fill="#E5502C"/>
<path d="M319.209 304.206C315.499 308.197 306.224 314.878 300.287 317.847C292.311 321.93 288.322 323.229 278.676 324.993L270.05 326.477L291.661 341.325C304.832 350.326 314.108 356.079 315.499 356.079L317.818 356.172L319.859 329.725C320.972 315.156 321.806 302.907 321.714 302.536C321.621 302.072 320.415 302.907 319.209 304.206Z" fill="#E5502C"/>
<path d="M177.114 304.381C175.166 305.123 173.589 306.144 173.589 306.608C173.589 307.072 177.856 312.733 183.143 319.321C188.337 325.817 193.624 332.312 194.83 333.89L196.963 336.674L199.56 333.704C203.085 329.807 204.754 322.291 203.363 316.908C200.395 306.051 187.688 299.927 177.114 304.381Z" fill="#E5502C"/>
<path d="M346.111 303.825C336.835 307.537 331.919 318.394 335.166 327.952C336.371 331.664 339.34 336.211 340.545 336.211C341.009 336.211 346.574 329.622 352.974 321.642C361.971 310.321 364.383 306.795 363.455 305.96C360.395 303.083 350.841 301.969 346.111 303.825Z" fill="#E5502C"/>
<path d="M259.382 343.453C257.342 344.474 254.745 346.237 253.632 347.444C251.22 350.042 248.716 355.702 248.716 358.486C248.716 360.249 249.272 360.342 267.73 360.342C289.434 360.342 288.414 360.806 284.518 352.269C281.365 345.68 276.449 342.433 268.75 342.061C264.669 341.783 262.072 342.154 259.382 343.453Z" fill="#E5502C"/>
<defs>
<linearGradient id="paint0_linear_53_23" x1="268.423" y1="108.201" x2="109.684" y2="310.968" gradientUnits="userSpaceOnUse">
<stop offset="0.145833" stop-color="#E5502C"/>
<stop offset="0.723958" stop-color="white"/>
<stop offset="1" stop-color="#E5502C" stop-opacity="0.29"/>
</linearGradient>
<linearGradient id="paint1_linear_53_23" x1="268" y1="63.5253" x2="268" y2="442.475" gradientUnits="userSpaceOnUse">
<stop offset="0.145833" stop-color="#E5502C"/>
<stop offset="0.723958" stop-color="white"/>
<stop offset="1" stop-color="#E5502C" stop-opacity="0.29"/>
</linearGradient>
<linearGradient id="paint2_linear_53_23" x1="268" y1="0.499993" x2="497.18" y2="427.107" gradientUnits="userSpaceOnUse">
<stop offset="0.145833" stop-color="#E5502C"/>
<stop offset="0.723958" stop-color="white"/>
<stop offset="0.862031" stop-color="#E5502C" stop-opacity="0.29"/>
</linearGradient>
<linearGradient id="paint3_linear_53_23" x1="268" y1="0.499993" x2="497.18" y2="427.107" gradientUnits="userSpaceOnUse">
<stop offset="0.145833" stop-color="#E5502C"/>
<stop offset="0.723958" stop-color="white"/>
<stop offset="0.862031" stop-color="#E5502C" stop-opacity="0.29"/>
</linearGradient>
</defs>
</svg>
